<svg id="Arenna_copy_7" data-name="Arenna copy 7" xmlns="http://www.w3.org/2000/svg" width="450" height="187.815" viewBox="0 0 450 187.815">
  <g id="Arenna_copy_7-2" data-name="Arenna copy 7">
    <path id="Path_2" data-name="Path 2" d="M153.258,254.145c-1.526-1.685-3.831.328-3.831.328a111.818,111.818,0,0,1-14.686,11.472c-14.776,8.981-18.518,6.884-18.518,6.884-6.539-2.622,10.536-18.684,10.536-18.684,4-4.651,4.151-7.539,4.151-7.539-.15-10.768-8.94-8.522-8.94-8.522-2.395.21-2.873,4.917-2.873,4.917-.517,2.17-3.062,3.16-3.062,3.16-3.4,2.023-4.894,2.045-3.726-1.118a30.353,30.353,0,0,0,1.951-7.08,3.716,3.716,0,0,0-4.393-3.933,9.216,9.216,0,0,0-2.621.679,11.088,11.088,0,0,0-4.058,3.884,9.353,9.353,0,0,0-1.545,3.442c-5,2.655-7.216,3.724-7.216,3.724,1.073-4.533,1.459-6.212,14.849-64.869a31.29,31.29,0,0,0,.888-11.109c.2-2.468-1.047-4.261-3.008-5.707a5.83,5.83,0,0,0-3.193-1.042c-3.751.5-3.751.5-5.951,3.232-4.524,6.461-8.486,13.338-12.7,20.247-1.887,3.18-4.023,6.4-6.162,9.611-5.313,8.277-10.935,16.1-16,24.348-8.94,13.885-17.014,28.393-26.222,42.071-4.712,6.975-9.179,13.918-13.863,21.132-2.136,3.216-4.272,6.428-6.385,9.883a9.5,9.5,0,0,0-1.616,5.343c-.227,2.229.364,2.885,2.644,2.826l2-.266a7.522,7.522,0,0,0,5.539-2.445l4.77-4.776a217.216,217.216,0,0,1,29.054-25.594c2.129-1.259,4.227-2.76,6.357-4.019-.029-.239.473-.308.5-.066.249-.033.319.446.061.479-.479,2.262-1.456,4.589-1.916,7.093-1.964,6.608-3.9,13.462-5.578,20.28-2.937,10.9-6.111,22.047-9.029,33.192l-2.9,13.331a37.293,37.293,0,0,0-.6,9.362c-.038,1.714.8,2.334,2.873,2.55a9.969,9.969,0,0,1,3.78-.259c2.312.184,4.253-.564,6.475-1.1a2.7,2.7,0,0,0,2.257-2.255,69.388,69.388,0,0,1,1.683-6.818c1.992-6.369,3.956-12.98,6.2-19.385,4.323-12.508,16.749-50.017,23.8-69.818,3.193-1.836,6.226-3.553,8.566-4.858a6.826,6.826,0,0,0,2.816,4.261c.639.711,2.934,1.442,5.862.983a27.9,27.9,0,0,0,5.108-1.249c.993-.367,3.512-1.8,3.512-1.8-11.653,10.115-12.583,21.657-12.583,21.657.38,10.817,9.259,12.456,9.259,12.456,17.962-.636,35.758-22.617,35.758-22.617C154.95,255.888,153.258,254.145,153.258,254.145ZM28.275,288.6l-.032-.243.252-.033C28.524,288.562,28.524,288.562,28.275,288.6Zm52.361-72.65c-2.439,8.873-5.108,18.028-7.541,26.878l-3.767,12.456a7.766,7.766,0,0,1-3.512,4.376A177.785,177.785,0,0,0,30.59,286.808c-.441.544-.817,1.573-1.849,1.465a6.314,6.314,0,0,1,.977-2.327c3.617-5.579,7.512-10.987,11.155-16.357,3.017-4.307,5.814-8.342,8.579-12.616,5.626-7.831,11-15.626,16.842-23.728,4.961-7.008,9.578-14.7,14.52-21.962.409-.787.536-1.78,1.539-1.914-.476,2.268-1.232,4.324-1.711,6.585ZM384.73,256.111s-15.258,17-20.753,14.75c0,0-5.179-.18-.958-12.784,0,0,5.747-17.645-8.3-18.356,0,0-5.163-1.6-22.349,11.472,0,0-2.976,2.363-5.108,3.933,0,0-2.58,1.682-1.277-.983,0,0,4.62-9.607-4.151-14.095,0,0-3.372-1.59-7.663,1.311,0,0-8.161,4.261-36.4,27.534,0,0-6.644,5.215-6.7-1.639a62.718,62.718,0,0,1,1.6-11.145s3.713-17.137-7.024-16.389c0,0-6.67-.928-26.819,14.423,0,0-4.677,3.675-3.512.328,0,0,4.789-8.6-3.512-14.423a6.9,6.9,0,0,0-8.62,1.967s-8.981,8.9-31.927,21.634c0,0-24.878,15.117-26.819,5.245,0,0-.259-2.576.958-3.606,0,0,9.026-2.294,22.03-12.456,0,0,13.665-9.8,11.813-15.078,0,0-3.039-10.207-27.138.983,0,0-13.486,7.211-15.006,21.634,0,0-8.189,7.07-.639,8.522,0,0,2.452,11.5,13.729,11.145,0,0,15.785,1.164,53.957-29.829a34.532,34.532,0,0,1-8.3,12.784s-8.333,9.771-2.554,15.406c0,0,2.618,4.179,8.94-2.294,0,0,31.528-28.39,36.716-25.567,0,0,2.969.862.639,13.111,0,0-.98,15.452,9.578,16.717a10.54,10.54,0,0,0,7.982-1.639s33.82-31.812,37.355-28.19c0,0,2.008.433-2.554,6.228,0,0-14.1,14.046-8.94,20.323,0,0,2.28,3.956,6.7.983,0,0,36.03-32.779,40.228-27.206,0,0,1.766-1.01.319,11.145,0,0-2.257,15.878,9.578,18.684,0,0,7.474,3.337,28.1-19.667,0,0,2.072-3.756.958-5.244C388.88,255.784,387.162,253.007,384.73,256.111ZM178.161,243.983c9.259-5.071,10.855-3.278,10.855-3.278,1.4,1.072-8.94,8.85-8.94,8.85-11.305,8.313-10.536,5.9-10.536,5.9C168,250.277,178.161,243.983,178.161,243.983Zm286.068,7.867c-1.5-1.193-2.873.656-2.873.656-3.091,3.2-10.217,9.834-10.217,9.834-5.147,5.281-7.024,3.606-7.024,3.606-4.818-2.055,3.193-13.439,3.193-13.439a49.216,49.216,0,0,0,4.789-8.195c1.746-6.589-2.554-6.883-2.554-6.883-5.393-.8-9.259,5.245-9.259,5.245-1.5,1.744-1.6-.328-1.6-.328.338-6.716-4.151-7.211-4.151-7.211-8.94-1.432-25.861,9.834-25.861,9.834-12.742,8.195-16.921,17.373-16.921,17.373-4.914,12.9.958,18.028.958,18.028,9.4,9.178,40.548-20.978,40.548-20.978,1.724-1.547,1.277.655,1.277.655-2.056,13.023,5.108,15.078,5.108,15.078,9.46,3.661,23.945-16.717,23.945-16.717C466.377,253.381,464.228,251.85,464.228,251.85Zm-29.373-2.294A119.293,119.293,0,0,1,422.4,261.684s-18.837,14.832-22.668,10.817c0,0-4.377-5.805,11.494-17.373,0,0,13.2-11.053,22.03-8.195C433.259,246.933,437.014,247.081,434.855,249.556Z" transform="translate(-15.019 -163.03)" fill="#fff"/>
  </g>
</svg>
