<svg xmlns="http://www.w3.org/2000/svg" width="99.911" height="99.98" viewBox="0 0 99.911 99.98">
  <g id="Group_4" data-name="Group 4" transform="translate(0 0)">
    <path id="Path_1653" data-name="Path 1653" d="M-266.616,2.563c2.719-3.784,5.079-7.06,7.428-10.343,1.254-1.752,2.472-3.528,3.735-5.273,1.468-2.03,3.3-2.522,4.931-1.365,1.575,1.118,1.738,3.1.3,5.132C-255.328-2.072-260.5,5.1-265.557,12.345a6.563,6.563,0,0,0-1.151,3.437c-.107,6.686.032,13.375-.1,20.061-.041,2.1.664,2.582,2.651,2.578q41.908-.089,83.815-.044a29.04,29.04,0,0,1,3.117.059,2.883,2.883,0,0,1,2.808,3.137,2.951,2.951,0,0,1-2.827,3.143,12.281,12.281,0,0,1-1.781.03q-44.695,0-89.389,0c-3.826,0-4.72-.891-4.721-4.7q0-44.583,0-89.166a9.645,9.645,0,0,1,.044-1.779A3.052,3.052,0,0,1-269.9-53.72a2.935,2.935,0,0,1,3.086,2.887,24.228,24.228,0,0,1,.067,2.671q0,24.075-.01,48.149C-266.756.625-266.689,1.262-266.616,2.563Z" transform="translate(273.153 55.217)" fill="#fff"/>
    <path id="Path_1654" data-name="Path 1654" d="M-170.985,41.255V27.315c-.849,1.046-1.438,1.807-2.063,2.536-1.372,1.6-3.278,1.91-4.716.788a3.256,3.256,0,0,1-.371-4.759c2.583-3.353,5.2-6.686,7.889-9.951,1.565-1.9,3.766-1.869,5.346.051q3.962,4.817,7.747,9.778c1.41,1.839,1.2,3.791-.348,4.925-1.455,1.063-3.3.706-4.7-.933-.565-.66-1.092-1.351-2.032-2.52-.064,1.333-.131,2.1-.133,2.863q-.037,11.588-.057,23.175c0,.594.017,1.19-.015,1.783-.116,2.166-1.361,3.64-3.1,3.692-1.835.056-3.281-1.5-3.331-3.707-.052-2.292-.012-4.587-.012-7.011-7.539-1.465-13.246-5.383-16.7-12.176a21.493,21.493,0,0,1-1.469-16.431c3.847-12.8,15.138-18,30.937-14.154,3.317-5.39,6.669-10.812,9.989-16.252.959-1.572,2.215-2.414,4.076-1.833,2.176.679,2.83,2.863,1.481,5.088-3,4.95-6.017,9.9-9.123,14.782-.839,1.319-.9,2.086.275,3.359a22.311,22.311,0,0,1-5.257,34.924c-2.564,1.459-4.336,1.272-5.442-.574q-1.63-2.72,2.169-4.983c9.841-5.876,11.17-18.448,2.752-26.036a15.759,15.759,0,0,0-17.482-2.209c-6.224,3.173-9.455,9.238-8.725,16.381a15.934,15.934,0,0,0,11.2,13.126C-171.841,41.134-171.475,41.169-170.985,41.255Z" transform="translate(227.099 32.658)" fill="#fff"/>
    <path id="Path_1655" data-name="Path 1655" d="M-78.962,27.623q0-14.816.016-29.631c0-.879-.131-2.021.343-2.576.779-.913,2.025-2.015,3.034-1.978s2.091,1.269,2.877,2.2c.389.461.238,1.424.239,2.16q.014,29.631,0,59.262c0,3.508-1,5.169-3.147,5.235-2.212.07-3.362-1.694-3.366-5.264Q-78.978,42.327-78.962,27.623Z" transform="translate(165.564 29.09)" fill="#fff"/>
    <path id="Path_1656" data-name="Path 1656" d="M-229.291.031a9.993,9.993,0,0,1,10.792-9.9A9.932,9.932,0,0,1-209.55,1.9c-.419,2.036-.1,3.255,1.445,4.556,1.955,1.649,2.1,3.554.711,5-1.366,1.426-3.353,1.394-5.068-.411a3.832,3.832,0,0,0-4.576-1.18C-223.158,11.732-229.33,6.63-229.291.031Zm13.5.134a3.522,3.522,0,0,0-3.436-3.6A3.631,3.631,0,0,0-222.918.177a3.719,3.719,0,0,0,3.469,3.637A3.647,3.647,0,0,0-215.79.165Z" transform="translate(248.851 30.941)" fill="#fff"/>
    <path id="Path_1657" data-name="Path 1657" d="M-214.15,63.592c0-6.755-.027-13.51.019-20.264.015-2.182,1.33-3.481,3.234-3.453,1.832.027,3,1.239,3.13,3.327.065,1.036.047,2.078.046,3.117q-.008,14.251-.024,28.5c0,3.117.033,6.235-.013,9.352-.034,2.322-1.291,3.8-3.133,3.847-1.943.048-3.246-1.474-3.255-3.942C-214.168,77.25-214.152,70.421-214.15,63.592Z" transform="translate(240.466 3.361)" fill="#fff"/>
    <path id="Path_1658" data-name="Path 1658" d="M-84.21-36.826a10.118,10.118,0,0,1-9.939-10.144,10.161,10.161,0,0,1,10.156-9.948,10.1,10.1,0,0,1,9.928,10.163A10.094,10.094,0,0,1-84.21-36.826Zm.14-6.383a3.777,3.777,0,0,0,3.583-3.562,3.757,3.757,0,0,0-3.654-3.707,3.749,3.749,0,0,0-3.593,3.543A3.838,3.838,0,0,0-84.07-43.21Z" transform="translate(173.975 56.989)" fill="#0c8"/>
    <path id="Path_1659" data-name="Path 1659" d="M-151.211-10.369c-.639,5.54-1.382,7.038-3.529,6.775-4.031-.494-2.973-3.887-3.357-6.82-1.105,1.3-1.963,2.372-2.889,3.382-1.441,1.571-3.123,1.786-4.524.643a3.215,3.215,0,0,1-.472-4.586q4.329-5.527,8.882-10.876a2.966,2.966,0,0,1,4.839.017c3.037,3.56,5.986,7.2,8.883,10.876A3.113,3.113,0,0,1-143.91-6.4a2.951,2.951,0,0,1-4.358-.5C-149.207-7.923-150.07-9.017-151.211-10.369Z" transform="translate(214.189 38.248)" fill="#0c8"/>
    <path id="Path_1660" data-name="Path 1660" d="M-218.534-44.4c-.475,3.027.6,6.811-3.509,6.729s-2.845-3.848-3.308-6.88c-1.1,1.332-1.909,2.339-2.753,3.313-1.41,1.627-3.243,1.933-4.7.816-1.541-1.179-1.687-3.131-.264-4.9,2.739-3.409,5.494-6.807,8.307-10.156,1.8-2.143,3.83-2.121,5.62.032q4.192,5.045,8.277,10.179c1.366,1.714,1.259,3.542-.155,4.741-1.48,1.254-3.366.959-4.866-.771C-216.656-42.189-217.413-43.088-218.534-44.4Z" transform="translate(251.49 57.077)" fill="#0c8"/>
  </g>
</svg>
