<svg xmlns="http://www.w3.org/2000/svg" width="86.9" height="100.02" viewBox="0 0 86.9 100.02">
  <g id="Group_1" data-name="Group 1" transform="translate(0 0)">
    <path id="Path_1648" data-name="Path 1648" d="M-177.837-.914c.523,1.236,1.027,2.369,1.486,3.521a8.5,8.5,0,0,1-.7,8.1,5.511,5.511,0,0,0-.716,2.689c-.158,7.2-3.467,11.524-10.428,13.4-2.723.733-5.54,1.183-8.176,2.142a11.187,11.187,0,0,0-4.006,2.869c-1.318,1.382-2.636,1.917-4.336,1.052a3.171,3.171,0,0,1-1.16-4.445,9.505,9.505,0,0,1,5.514-4.938c3.032-.976,6.125-1.781,9.219-2.55,5.75-1.43,7.176-3.39,6.93-9.289A5.362,5.362,0,0,1-183.2,8.187c1.255-1.462.987-2.691.485-4.293a26.256,26.256,0,0,1-1.41-6.828C-184.2-5.1-182.8-6.525-180.489-7.08c3.077-.739,3.3-1.336,1.905-4.178a19.557,19.557,0,0,0-2.166-3.63,59.206,59.206,0,0,1-9.66-18.46c-.542-1.617-1.255-3.179-1.935-4.746-4.259-9.8-12.2-14.186-22.426-14.447-10.489-.268-19.967,2.95-27.7,10.286-7.307,6.932-9.75,15.759-9.239,25.557.471,9.041,3.993,16.961,9.045,24.336,3.736,5.454,7.635,10.876,9.189,17.455.71,3.006.95,6.124,1.445,9.471h2.257q11.939-.011,23.877-.018c.892,0,1.789-.014,2.675.069a2.981,2.981,0,0,1,2.9,3.09,3.093,3.093,0,0,1-3.026,3.219,8.733,8.733,0,0,1-.892.013q-15.509,0-31.018-.005c-2.776,0-4.178-1.176-3.828-3.683,1.213-8.71-2-16.008-6.818-22.907-4.435-6.352-8.6-12.878-10.536-20.511-3.279-12.916-2.506-25.306,5.634-36.382,6.535-8.891,15.814-13.48,26.426-15.653a38.416,38.416,0,0,1,21.716,1.569c8.6,3.251,14.015,9.68,17.089,18.037,2.917,7.932,6.37,15.486,11.518,22.255a16.08,16.08,0,0,1,2.46,5.906c.9,3.715-.7,6.745-4.09,8.506C-176.334-1.593-177.006-1.3-177.837-.914Z" transform="translate(258.252 59.077)" fill="#fff"/>
    <path id="Path_1649" data-name="Path 1649" d="M-196.485,13.945c.117-1.584.224-3.035.381-5.162-1.758,1.714-3.1,3.008-4.427,4.319-2,1.972-3.716,2.238-5.233.792-1.484-1.413-1.2-3.521.731-5.43,4.332-4.275,8.665-8.547,13.408-13.225-1.484-1.276-2.776-2.28-3.941-3.415-1.692-1.648-1.827-3.546-.476-4.9,1.408-1.415,3.267-1.339,4.943.268a21.974,21.974,0,0,1,1.653,2.085c.382-1.395.61-2.143.788-2.9s.309-1.548.539-2.722c-5.107,1.352-10.142,1.308-13.781,5.812-3.3,4.085-7.378,7.544-11.126,11.266-1.934,1.921-3.783,2.142-5.228.668-1.387-1.413-1.1-3.451.709-5.272,1.311-1.316,2.6-2.651,3.9-3.982.037-.038.013-.134.037-.521l-4.818.463c.469,1.99.371,3.641-1.505,4.565-1.9.938-3.257-.1-4.516-1.386a23.283,23.283,0,0,1-3.24-3.363c-.643-1.01-1.2-2.618-.82-3.583a4.238,4.238,0,0,1,3.024-2.013c5.827-.717,11.7-1.092,17.524-1.8a6.657,6.657,0,0,0,3.766-1.84,11.171,11.171,0,0,1,6.072-3.409c4.507-.949,8.98-2.056,13.478-3.048,2.447-.539,4.487,1.159,4,3.607-1.122,5.606-2.352,11.2-3.878,16.708-.39,1.407-2.161,2.384-3.085,3.707a7.532,7.532,0,0,0-1.442,3.3c-.6,5.693-1.014,11.405-1.492,17.111-.138,1.646-.579,3.106-2.364,3.669-1.66.523-2.853-.263-3.929-1.433-.855-.93-1.773-1.8-2.68-2.685-1.333-1.3-2.514-2.669-1.563-4.679C-200.187,13.619-198.468,13.6-196.485,13.945Z" transform="translate(241.857 39.6)" fill="#09f"/>
    <path id="Path_1650" data-name="Path 1650" d="M-204.059,64.281a18.671,18.671,0,0,1,3.176-10c1.251-1.773,3.1-2.227,4.619-1.251,1.564,1,1.913,2.787.791,4.684-2.925,4.946-2.822,9.7.74,14.305a3,3,0,0,1-.254,4.393,3.1,3.1,0,0,1-4.575-.255C-202.805,72.816-203.829,68.613-204.059,64.281Z" transform="translate(228.254 -2.7)" fill="#09f"/>
    <path id="Path_1651" data-name="Path 1651" d="M-190.336,29.49c-.862-.68-2.131-1.189-2.412-2.03-.35-1.043-.337-2.772.311-3.489,3.084-3.414,6.37-6.657,9.73-9.805a2.94,2.94,0,0,1,4.254.135,2.884,2.884,0,0,1,.142,4.383c-3.139,3.268-6.362,6.457-9.615,9.612A9.84,9.84,0,0,1-190.336,29.49Z" transform="translate(222.12 19.002)" fill="#09f"/>
    <path id="Path_1652" data-name="Path 1652" d="M-229.147,47.531a9.833,9.833,0,0,1-2.014-.222c-1.6-.485-2.756-1.7-2.271-3.3.342-1.12,1.613-2.648,2.6-2.752a20.634,20.634,0,0,0,9.077-2.632c1.4-.865,2.948-.267,3.85,1.193a3.027,3.027,0,0,1-.856,4.334C-221.748,46.477-225.241,47.344-229.147,47.531Z" transform="translate(244.575 5.214)" fill="#09f"/>
  </g>
</svg>
