<svg id="Group_3" data-name="Group 3" xmlns="http://www.w3.org/2000/svg" width="78.348" height="99.98" viewBox="0 0 78.348 99.98">
  <path id="Path_825" data-name="Path 825" d="M-155.689,309.137c.53-6.855.971-13.138,1.516-19.412.351-4.039,1.889-7.532,5.49-9.709,6.575-3.975,14.618.18,15.471,8.1a62.61,62.61,0,0,1-.15,8.895c-.07,1.914-.243,3.823-.39,6.049,5.327-.921,9.172,1.078,11.5,4.925,2.918-.3,5.526-1.068,7.96-.7,4.708.715,7.22,4.121,8.267,8.58a20.759,20.759,0,0,1,.415,4.652c.034,10.187-.013,20.375.029,30.563a37.737,37.737,0,0,1-3.748,16.372,16.557,16.557,0,0,1-.963,1.757c-1.13,1.8-2.912,2.381-4.534,1.5a3.072,3.072,0,0,1-1.056-4.458c4.086-7.142,4.021-14.935,3.782-22.771a3.564,3.564,0,0,0-.245-.776c-4.844,1.3-9.293.921-12.636-3.49a11.317,11.317,0,0,1-9.914,1.294c-4.162-1.435-6.628-4.546-6.739-8.809-.2-7.465-.658-14.908.748-22.414,1.169-6.241,1.055-12.726,1.425-19.107a6.642,6.642,0,0,0-.589-2.806,3.511,3.511,0,0,0-6.37-.678,9.84,9.84,0,0,0-1.436,4.364c-.648,7.778-1.1,15.572-1.695,23.355-.113,1.484.089,2.323,1.676,3.032,4.68,2.09,6.4,8.222,3.864,13.49a45.648,45.648,0,0,1-3.215,5.014l9.212,9.292a22.738,22.738,0,0,1,17.132.186,22.406,22.406,0,0,1,4.815,2.734,3.126,3.126,0,0,1,.9,4.666c-1.1,1.487-2.949,1.7-4.723.428a16.342,16.342,0,0,0-14.415-2.4,2.553,2.553,0,0,0-1.474,1.711c-.3,1.711-1.143,2.759-2.827,2.955s-2.739-.723-3.5-2.2c-1.279-2.5-2.6-4.981-4.069-7.366a11.619,11.619,0,0,0-2.5-2.515c-2.781-2.357-5.634-4.231-9.193-1.248a6.031,6.031,0,0,1-2.251.943c-1.764.491-3.284.125-4.158-1.625-.789-1.579-.1-3.326,1.705-4.271,2.7-1.41,5.5-2.631,8.14-4.129a9.562,9.562,0,0,0,4.9-5.813c.867-3.239-.9-5.1-4.09-4.078-5.23,1.679-10.484,3.361-15.54,5.488-7.057,2.969-9.523,8.639-7.957,17.379,1.181,6.592,3.924,12.592,7.246,18.352.26.45.565.874.827,1.323,1.183,2.028.9,3.914-.723,4.89a3.288,3.288,0,0,1-4.721-1.478c-2.059-3.778-4.185-7.55-5.854-11.505-2.591-6.142-4.189-12.532-3.378-19.323.612-5.126,2.745-9.448,6.906-12.5,1.708-1.253,1.849-2.484,1.486-4.3q-2.563-12.776-4.974-25.583c-1.063-5.606.978-10.746,5.082-13.04a9.739,9.739,0,0,1,12.936,2.635,22.028,22.028,0,0,1,3.1,7.276c1.177,4.826,1.919,9.758,2.86,14.644A13.275,13.275,0,0,0-155.689,309.137Zm-5.31,9.734a3.442,3.442,0,0,0,.094-.829c-1.578-8.317-3.117-16.643-4.777-24.944-.71-3.547-2.913-5.56-5.152-5.053-2.487.563-3.727,3.157-3.09,6.758.788,4.459,1.665,8.9,2.521,13.349.849,4.41,1.72,8.816,2.623,13.434Zm25.571,3.477h.015c0,2.752-.085,5.507.025,8.255a3.994,3.994,0,0,0,3.881,4.1,3.955,3.955,0,0,0,4.409-3.786c.138-5.719.16-11.452-.1-17.165-.131-2.882-1.8-4.411-3.817-4.473-2.064-.063-3.726,1.614-4.273,4.381a10.789,10.789,0,0,0-.134,2C-135.438,317.887-135.428,320.118-135.428,322.349Zm23.3,3.268h-.1c0-2.666.155-5.344-.046-8a4.3,4.3,0,0,0-3.887-4.2c-1.817-.04-3.506,1.532-4.069,3.8a5.683,5.683,0,0,0-.229,1.313c-.022,4.741-.156,9.488.024,14.222.109,2.863,1.661,4.256,3.9,4.171a4.405,4.405,0,0,0,4.376-4.424C-112.037,330.217-112.13,327.914-112.13,325.617Z" transform="translate(183.929 -278.487)" fill="#fff"/>
  <path id="Path_826" data-name="Path 826" d="M-126.558,488.182q12.046,0,24.093,0a18.231,18.231,0,0,1,2.671.1,2.935,2.935,0,0,1,2.69,3.053,3.049,3.049,0,0,1-2.615,3.155,7.7,7.7,0,0,1-1.778.067q-25.208,0-50.417,0a7.945,7.945,0,0,1-1.558-.04,3.042,3.042,0,0,1-2.763-3.235,2.827,2.827,0,0,1,2.91-3.028c2.6-.116,5.2-.06,7.806-.062q9.481-.008,18.962,0Z" transform="translate(168.595 -394.603)" fill="#ff3000"/>
</svg>
