<svg id="Group_2" data-name="Group 2" xmlns="http://www.w3.org/2000/svg" width="100.102" height="100.02" viewBox="0 0 100.102 100.02">
  <path id="Path_827" data-name="Path 827" d="M-218.64,293.668c-6.188,4.941-13.163,7.387-20.813,2.554-7.948-5.021-8.146-12.43-5.273-20.9-8.958,2.972-16.716,2.465-21.609-6.425-3.44-6.252-2.424-11.483,3.354-19.89a64.571,64.571,0,0,1-3.966-7.18c-3.593-8.936,1.246-18.816,10.351-20.8,2.641-.576,5.588-.07,8.343.314a2.767,2.767,0,0,1,2.323,3.5,3.053,3.053,0,0,1-3.534,2.657c-1.693-.112-3.432-.633-5.062-.385a8.631,8.631,0,0,0-6.652,11.507,26.42,26.42,0,0,0,4.7,7.158c2.173,2.59,2.225,3.536-.009,6.047a28.615,28.615,0,0,0-4.369,6.1c-1.756,3.539-.957,7,1.588,9.941,2.329,2.69,5.356,3.233,8.73,2.378,5.96-1.508,10.639-5.148,15.156-9.056,1.067-.923,2.039-1.956,3.1-2.89,1.563-1.379,3.269-1.421,4.59-.17,1.385,1.311,1.315,3.057-.06,4.754-3.034,3.743-6.214,7.392-8.944,11.35a27.13,27.13,0,0,0-2.992,7.135,7.548,7.548,0,0,0,2.237,8.337c2.715,2.456,6.036,3.551,9.474,1.966a29.621,29.621,0,0,0,6.713-4.612c2.5-2.157,3.565-2.17,6.063.017a26.385,26.385,0,0,0,6.319,4.424c6.566,2.936,14.139-2.926,12.206-9.973a3.18,3.18,0,0,1,2.412-4.287c1.957-.4,3.322.665,3.858,3a15.1,15.1,0,0,1-19.334,17.768C-212.734,297.083-215.441,295.262-218.64,293.668Z" transform="translate(268.31 -198.821)" fill="#fff"/>
  <path id="Path_828" data-name="Path 828" d="M-191.05,177.017c3.787-3.128,7.844-5.387,12.767-5.428A15.21,15.21,0,0,1-163.247,190.1c-1.519,7.274-5.816,12.919-10.478,18.371-1.013,1.185-2.1,2.311-3.207,3.411-1.557,1.548-3.36,1.652-4.728.34s-1.306-3.072.065-4.764c3.035-3.743,6.229-7.383,8.942-11.351a22.466,22.466,0,0,0,3.012-7.356A8.6,8.6,0,0,0-180.977,178.6a23.648,23.648,0,0,0-6.972,4.586c-2.745,2.378-3.578,2.388-6.367-.059a27.391,27.391,0,0,0-6.578-4.4c-3.445-1.563-6.748-.536-9.476,1.938-2.558,2.32-3.042,5.277-2.2,8.576,1.559,6.117,5.321,10.879,9.348,15.49.928,1.063,1.991,2.014,2.869,3.115a2.959,2.959,0,0,1-.264,4.385,2.817,2.817,0,0,1-4.211.07c-5.859-5.873-11.252-12.1-13.66-20.3-2.091-7.117-.289-13.179,5.023-17.167a15.953,15.953,0,0,1,18.585-.5C-193.631,175.131-192.452,176.033-191.05,177.017Z" transform="translate(241.192 -171.589)" fill="#fff"/>
  <path id="Path_829" data-name="Path 829" d="M-100.606,248.516c1.415,2.889,3.277,5.737,4.239,8.863,1.827,5.933-.012,11.2-4.364,15.456-4.381,4.281-9.761,4.724-15.371,3.084-8.188-2.393-14.438-7.774-20.315-13.638a2.97,2.97,0,0,1,.165-4.391c1.321-1.276,2.955-1.2,4.59.125,3.749,3.027,7.393,6.213,11.348,8.945a27.305,27.305,0,0,0,7.13,3,7.546,7.546,0,0,0,8.359-2.149c2.4-2.636,3.586-5.883,2.077-9.249a31.029,31.029,0,0,0-4.783-7.107c-2.06-2.433-2.232-3.561.068-5.839,2.409-2.387,4.521-4.95,5.1-8.431a8.7,8.7,0,0,0-10.472-10.224,7.727,7.727,0,0,1-2.642.182,2.9,2.9,0,0,1-2.553-2.931,2.958,2.958,0,0,1,2.49-3.232c5.412-1.32,10.574-.959,14.74,3.179,4.43,4.4,6.355,9.748,4.338,15.861C-97.449,243-99.216,245.723-100.606,248.516Z" transform="translate(195.767 -198.565)" fill="#fff"/>
  <path id="Path_830" data-name="Path 830" d="M-191.442,282.757c-1.709,0-3.419.04-5.126-.008-2.178-.061-3.544-1.333-3.512-3.183a3.191,3.191,0,0,1,3.363-3.122q5.125-.1,10.252,0a3.2,3.2,0,0,1,3.3,3.192,3.188,3.188,0,0,1-3.375,3.1C-188.171,282.8-189.808,282.755-191.442,282.757Z" transform="translate(230.527 -229.628)" fill="#ffb900"/>
  <path id="Path_831" data-name="Path 831" d="M-141.542,282.758c-1.71,0-3.421.045-5.128-.012a3.241,3.241,0,0,1-3.381-3.116,3.186,3.186,0,0,1,3.3-3.18q5.127-.091,10.258,0a3.159,3.159,0,0,1,3.369,3.105,3.165,3.165,0,0,1-3.29,3.19C-138.12,282.817-139.833,282.759-141.542,282.758Z" transform="translate(202.823 -229.631)" fill="#ffb900"/>
  <path id="Path_832" data-name="Path 832" d="M-156.924,298.295c0,1.709.073,3.422-.017,5.126a3.013,3.013,0,0,1-3.117,3.113,3.022,3.022,0,0,1-3.148-3.067c-.089-3.565-.081-7.135-.009-10.7a3.149,3.149,0,0,1,3.109-3.139,3.172,3.172,0,0,1,3.16,3.095C-156.857,294.575-156.926,296.436-156.924,298.295Z" transform="translate(210.143 -236.954)" fill="#ffb900"/>
  <path id="Path_833" data-name="Path 833" d="M-156.927,248.252c0,1.709.052,3.42-.014,5.126a3.005,3.005,0,0,1-3.1,3.125,3.074,3.074,0,0,1-3.171-3.065q-.13-5.345,0-10.7a2.993,2.993,0,0,1,3.113-3.118c1.773-.107,3.039,1.264,3.176,3.279.01.148.01.3.01.445q0,2.452,0,4.9Z" transform="translate(210.147 -209.261)" fill="#ffb900"/>
  <path id="Path_834" data-name="Path 834" d="M-240.981,356.78a18.9,18.9,0,0,1-1.319,2.089c-1.544,1.961-3.274,3.785-4.71,5.818-1.3,1.843-2.817,2.588-4.469,1.747-1.692-.861-2.18-2.529-1.3-4.6a17.555,17.555,0,0,1,6.761-8.087C-243.7,352.269-241.069,353.6-240.981,356.78Z" transform="translate(259.947 -272.128)" fill="#fff"/>
</svg>
