<svg id="Arenna_copy_7" data-name="Arenna copy 7" xmlns="http://www.w3.org/2000/svg" width="109.804" height="44.638" viewBox="0 0 109.804 44.638">
  <g id="Arenna_copy_7-2" data-name="Arenna copy 7">
    <path id="Path_2" data-name="Path 2" d="M48.75,184.685c-.372-.4-.935.078-.935.078a27.219,27.219,0,0,1-3.584,2.727c-3.605,2.135-4.519,1.636-4.519,1.636-1.6-.623,2.571-4.441,2.571-4.441a3.449,3.449,0,0,0,1.013-1.792c-.037-2.559-2.181-2.026-2.181-2.026-.584.05-.7,1.169-.7,1.169a1.285,1.285,0,0,1-.747.751c-.83.481-1.194.486-.909-.266a7.068,7.068,0,0,0,.476-1.683.9.9,0,0,0-1.072-.935,2.3,2.3,0,0,0-.64.161,2.676,2.676,0,0,0-.99.923,2.2,2.2,0,0,0-.377.818c-1.221.631-1.761.885-1.761.885.262-1.077.356-1.476,3.623-15.417a7.251,7.251,0,0,0,.217-2.64,1.478,1.478,0,0,0-.734-1.356,1.448,1.448,0,0,0-.779-.248c-.915.118-.915.118-1.452.768-1.1,1.536-2.071,3.17-3.1,4.812-.46.756-.982,1.52-1.5,2.284-1.3,1.967-2.668,3.827-3.9,5.787-2.181,3.3-4.152,6.748-6.4,10-1.15,1.658-2.24,3.308-3.383,5.023-.521.764-1.042,1.528-1.558,2.349a2.217,2.217,0,0,0-.394,1.27c-.055.53.089.686.645.672l.488-.063a1.858,1.858,0,0,0,1.352-.581l1.164-1.135a52.6,52.6,0,0,1,7.089-6.083c.52-.3,1.031-.656,1.551-.955-.007-.057.115-.073.122-.016.061-.008.078.106.015.114-.117.538-.355,1.091-.467,1.686-.479,1.571-.95,3.2-1.361,4.82-.717,2.591-1.491,5.24-2.2,7.889l-.707,3.168a8.638,8.638,0,0,0-.146,2.225c-.009.407.2.555.7.606a2.5,2.5,0,0,1,.922-.062,4.984,4.984,0,0,0,1.58-.262.651.651,0,0,0,.551-.536,16.138,16.138,0,0,1,.411-1.62c.486-1.514.965-3.085,1.513-4.607,1.055-2.973,4.087-11.888,5.807-16.594.779-.436,1.519-.844,2.09-1.155a1.62,1.62,0,0,0,.687,1.013,1.867,1.867,0,0,0,1.43.234,6.959,6.959,0,0,0,1.246-.3c.242-.087.857-.427.857-.427A8.3,8.3,0,0,0,37.3,188.5a2.94,2.94,0,0,0,2.259,2.96c4.383-.151,8.725-5.375,8.725-5.375C49.163,185.1,48.75,184.685,48.75,184.685Zm-30.5,8.19-.008-.058.062-.008C18.314,192.865,18.314,192.865,18.254,192.875ZM31.03,175.609c-.6,2.109-1.246,4.285-1.84,6.388l-.919,2.96a1.855,1.855,0,0,1-.857,1.04,43.265,43.265,0,0,0-8.6,6.451c-.108.129-.2.374-.451.348a1.48,1.48,0,0,1,.238-.553c.883-1.326,1.833-2.611,2.722-3.887.736-1.024,1.419-1.983,2.093-3,1.373-1.861,2.684-3.714,4.109-5.64,1.211-1.666,2.337-3.495,3.543-5.22.1-.187.131-.423.376-.455-.116.539-.3,1.028-.418,1.565Zm74.2,9.544s-3.723,4.04-5.064,3.506c0,0-1.264-.043-.234-3.038,0,0,1.4-4.194-2.026-4.363,0,0-1.26-.38-5.453,2.727,0,0-.726.562-1.246.935,0,0-.629.4-.312-.234,0,0,1.127-2.283-1.013-3.35a2.015,2.015,0,0,0-1.87.312s-1.991,1.013-8.881,6.544c0,0-1.621,1.239-1.636-.39a14.545,14.545,0,0,1,.39-2.649s.906-4.073-1.714-3.9c0,0-1.627-.22-6.544,3.428,0,0-1.141.873-.857.078a2.566,2.566,0,0,0-.857-3.428,1.715,1.715,0,0,0-2.1.467,38.667,38.667,0,0,1-7.791,5.142s-6.07,3.593-6.544,1.246c0,0-.063-.612.234-.857a16.654,16.654,0,0,0,5.375-2.96s3.334-2.33,2.882-3.584c0,0-.742-2.426-6.622.234,0,0-3.291,1.714-3.662,5.142,0,0-2,1.68-.156,2.026a3.387,3.387,0,0,0,3.35,2.649s3.852.277,13.166-7.089a8.189,8.189,0,0,1-2.026,3.038s-2.033,2.322-.623,3.662c0,0,.639.993,2.181-.545,0,0,7.693-6.747,8.959-6.077,0,0,.725.2.156,3.116,0,0-.239,3.672,2.337,3.973a2.631,2.631,0,0,0,1.948-.39s8.253-7.561,9.115-6.7c0,0,.49.1-.623,1.48,0,0-3.44,3.338-2.181,4.83a1.084,1.084,0,0,0,1.636.234s8.792-7.791,9.816-6.466c0,0,.431-.24.078,2.649,0,0-.551,3.774,2.337,4.441,0,0,1.824.793,6.856-4.674,0,0,.506-.893.234-1.246C106.244,185.075,105.825,184.415,105.232,185.153Zm-50.4-2.882c2.259-1.205,2.649-.779,2.649-.779.341.255-2.181,2.1-2.181,2.1-2.759,1.976-2.571,1.4-2.571,1.4C52.348,183.766,54.827,182.27,54.827,182.27Zm69.8,1.87c-.365-.284-.7.156-.7.156-.754.76-2.493,2.337-2.493,2.337-1.256,1.255-1.714.857-1.714.857-1.176-.488.779-3.194.779-3.194a11.617,11.617,0,0,0,1.169-1.948c.426-1.566-.623-1.636-.623-1.636-1.316-.19-2.259,1.246-2.259,1.246-.366.414-.39-.078-.39-.078.083-1.6-1.013-1.714-1.013-1.714-2.181-.34-6.31,2.337-6.31,2.337a11.154,11.154,0,0,0-4.129,4.129c-1.2,3.065.234,4.285.234,4.285,2.294,2.181,9.894-4.986,9.894-4.986.421-.368.312.156.312.156-.5,3.1,1.246,3.584,1.246,3.584,2.308.87,5.843-3.973,5.843-3.973C125.154,184.5,124.63,184.14,124.63,184.14Zm-7.167-.545a28.775,28.775,0,0,1-3.038,2.882s-4.6,3.525-5.531,2.571c0,0-1.068-1.38,2.8-4.129,0,0,3.221-2.627,5.375-1.948C117.073,182.971,117.989,183.006,117.463,183.595Z" transform="translate(-15.019 -163.03)" fill="#fff"/>
  </g>
</svg>
