<svg xmlns="http://www.w3.org/2000/svg" width="45" height="45" viewBox="0 0 45 45">
  <g id="Group_204" data-name="Group 204" transform="translate(-1652 -451)">
    <g id="Ellipse_13" data-name="Ellipse 13" transform="translate(1652 451)" fill="none" stroke="#120e49" stroke-width="2">
      <circle cx="22.5" cy="22.5" r="22.5" stroke="none"/>
      <circle cx="22.5" cy="22.5" r="21.5" fill="none"/>
    </g>
    <g id="twitter" transform="translate(1667 467.358)">
      <g id="Group_121" data-name="Group 121" transform="translate(0)">
        <path id="Path_281" data-name="Path 281" d="M15.5,49.491a6.627,6.627,0,0,1-1.831.5,3.16,3.16,0,0,0,1.4-1.757,6.351,6.351,0,0,1-2.015.769,3.178,3.178,0,0,0-5.5,2.173,3.272,3.272,0,0,0,.074.725,9,9,0,0,1-6.551-3.324,3.179,3.179,0,0,0,.977,4.248A3.139,3.139,0,0,1,.62,52.436v.035a3.193,3.193,0,0,0,2.546,3.123,3.172,3.172,0,0,1-.833.1,2.811,2.811,0,0,1-.6-.054A3.208,3.208,0,0,0,4.7,57.858,6.386,6.386,0,0,1,.761,59.213,5.953,5.953,0,0,1,0,59.17,8.947,8.947,0,0,0,4.876,60.6a8.983,8.983,0,0,0,9.046-9.044c0-.14,0-.276-.012-.411A6.34,6.34,0,0,0,15.5,49.491Z" transform="translate(0 -48)" fill="#120e49"/>
      </g>
    </g>
  </g>
</svg>
