<svg xmlns="http://www.w3.org/2000/svg" width="45" height="45" viewBox="0 0 45 45">
  <g id="Group_205" data-name="Group 205" transform="translate(-1652 -510)">
    <g id="Ellipse_14" data-name="Ellipse 14" transform="translate(1652 510)" fill="none" stroke="#120e49" stroke-width="2">
      <circle cx="22.5" cy="22.5" r="22.5" stroke="none"/>
      <circle cx="22.5" cy="22.5" r="21.5" fill="none"/>
    </g>
    <g id="instagram_1_" data-name="instagram (1)" transform="translate(1667 525.059)">
      <path id="Path_188" data-name="Path 188" d="M11.023,0H4.091A4.1,4.1,0,0,0,0,4.092v6.932a4.1,4.1,0,0,0,4.092,4.092h6.932a4.1,4.1,0,0,0,4.092-4.092V4.092A4.1,4.1,0,0,0,11.023,0ZM7.557,11.691A4.133,4.133,0,1,1,11.69,7.558,4.138,4.138,0,0,1,7.557,11.691ZM11.789,4.4A1.221,1.221,0,1,1,13.01,3.178,1.223,1.223,0,0,1,11.789,4.4Zm0,0" transform="translate(0.001 0)" fill="#120e49"/>
      <path id="Path_189" data-name="Path 189" d="M148.819,146.02a2.8,2.8,0,1,0,2.8,2.8A2.8,2.8,0,0,0,148.819,146.02Zm0,0" transform="translate(-141.261 -141.261)" fill="#120e49"/>
      <path id="Path_190" data-name="Path 190" d="M388.328,96.3a.335.335,0,1,0,.335.335A.336.336,0,0,0,388.328,96.3Zm0,0" transform="translate(-376.538 -93.458)" fill="#120e49"/>
    </g>
  </g>
</svg>
