<svg xmlns="http://www.w3.org/2000/svg" width="186.088" height="58.093" viewBox="0 0 186.088 58.093">
  <g id="Group_119" data-name="Group 119" transform="translate(-205.56 -67.999)">
    <g id="index_" data-name="index " transform="translate(3541 977)">
      <path id="bee_copy" data-name="bee copy" d="M158.122,99.66a6.233,6.233,0,0,1-.684.04,2.65,2.65,0,0,1-2.04-.715,2.031,2.031,0,0,1-.5-1.407,2.68,2.68,0,0,1-.421.036,1.194,1.194,0,0,1-.9-.326,1.11,1.11,0,0,1-.28-.751c-.193-1.49,2.583-4.645,2.611-4.676-2.258-1.4-2.462-4.732-2.464-4.766a5.519,5.519,0,0,1,1-4.153,2.836,2.836,0,0,1,1.261-.9,1.446,1.446,0,0,1,.345-.043c1.453,0,1.9,2.451,1.92,2.555a5.372,5.372,0,0,1-.949,4.209.391.391,0,0,1-.37.247,1.318,1.318,0,0,1-.674-.3c-.1-.2.154-.824.157-.831a5.46,5.46,0,0,0,.612-2.157c-.03-1.354-.3-2.039-.816-2.039-.464,0-.961.579-1.016.644a4.906,4.906,0,0,0,.276,4.643,7.2,7.2,0,0,0,1.556,1.862c4.643-4.981,7.787-5.234,8.37-5.234.062,0,.1,0,.1,0a4.075,4.075,0,0,1,.717-.071,1.726,1.726,0,0,1,1.388.546,2.373,2.373,0,0,1,.4,1.715,7.16,7.16,0,0,1-4.023,4.888,10,10,0,0,1-3.677.8,4.508,4.508,0,0,1-2.818-.786c-2.358,2.281-2.734,3.659-2.749,3.716.042.415.473.477.725.477a1.418,1.418,0,0,0,.192-.012,5.422,5.422,0,0,1,.94-2.363,3.118,3.118,0,0,1,1.967-.835,1.923,1.923,0,0,1,1.217.41c.685,1.25-1.291,2.724-1.374,2.787a4,4,0,0,1-1.82.532,1.353,1.353,0,0,1-.473-.067,1.009,1.009,0,0,0,.076.93,1.988,1.988,0,0,0,1.558.5,5.426,5.426,0,0,0,.651-.04h.006c.524-2.339,1.39-2.83,2.023-2.83a1.951,1.951,0,0,1,1.185.508,1.508,1.508,0,0,1,.12,1.452c-.556,1.088-2.675,1.382-2.7,1.384a4.254,4.254,0,0,0,2.122.477,6.439,6.439,0,0,0,.913-.061,2.914,2.914,0,0,1-1.92.874A2.4,2.4,0,0,1,158.122,99.66Zm1.251-2.336c-.175.555-.334.941-.335.943a7.608,7.608,0,0,1,.849-.32c.409-.2.634-.423.67-.662a.51.51,0,0,0-.143-.411.393.393,0,0,0-.257-.1C159.77,96.776,159.377,97.318,159.373,97.323Zm-3.542-.451c2.437-.894,2.293-1.849,2.291-1.859a.241.241,0,0,0-.21-.114C157.271,94.9,155.845,96.853,155.831,96.872ZM165,87.116a13.764,13.764,0,0,0-6.877,4.646A10.4,10.4,0,0,0,160.3,92a7.025,7.025,0,0,0,1.951-.237c3.013-.919,3.66-2.768,3.667-2.787.329-.67.4-1.17.2-1.488a1.057,1.057,0,0,0-.908-.382A1.692,1.692,0,0,0,165,87.116Zm-14.426,7.69a3.158,3.158,0,0,0,2.79-2.562,4.286,4.286,0,0,1-2.331,1.779,5.889,5.889,0,0,1-.982.09c-1.412,0-1.849-.655-1.853-.661-1.308-1.624.5-3.2.519-3.217a4.012,4.012,0,0,1,2.618-1.062,3.218,3.218,0,0,1,1.624.422c-1.41-3.268-3.069-3.406-3.085-3.407a2.387,2.387,0,0,1-.444.048.75.75,0,0,1-.558-.179.378.378,0,0,1-.109-.254.967.967,0,0,1,.118-.826.942.942,0,0,1,.768-.278,2.762,2.762,0,0,1,.683.1,7.758,7.758,0,0,1,3.22,3.886A6.717,6.717,0,0,1,154,90.833a2.747,2.747,0,0,1-.541,2.966,3.764,3.764,0,0,1-2.733,1.01C150.629,94.809,150.574,94.805,150.573,94.805Zm.674-4.9a3.052,3.052,0,0,0-1.933.87,1.815,1.815,0,0,0-.358,1.453.926.926,0,0,0,.2.675,1.175,1.175,0,0,0,.932.334,3.572,3.572,0,0,0,.7-.08,2.34,2.34,0,0,0,1.833-1.858,1.414,1.414,0,0,0-.276-1.015,1.266,1.266,0,0,0-1-.381Zm.064,1.149a.492.492,0,1,1,.487.42A.491.491,0,0,1,151.311,91.052Zm-1.642-.245a.431.431,0,1,1,.49.351.449.449,0,0,1-.066,0A.424.424,0,0,1,149.669,90.807Zm-3.005-2.3a.792.792,0,0,1,.182-.626,1.125,1.125,0,0,1,.734-.3,2.448,2.448,0,0,1,.454-.043,2.928,2.928,0,0,1,2.3,1.437,2.852,2.852,0,0,0-1.529-.531,1.6,1.6,0,0,0-1.221.531.561.561,0,0,1-.383.212C146.831,89.186,146.666,88.517,146.664,88.51Z" transform="translate(-3410 -991)" fill="#3dec9d"/>
      <text id="Nsp_resoft" data-name="Nsp   resoft" transform="translate(-3335.44 -869.43)" font-size="32.53" font-family="OpenSans-ExtraBold, Open Sans" font-weight="800" letter-spacing="-0.025em"><tspan x="0" y="0" xml:space="preserve">Nsp   resoft</tspan></text>
      <path id="bulb_copy" data-name="bulb copy" d="M147.474,123.431a2.418,2.418,0,0,1-.254,2.169,3.585,3.585,0,0,1-2.544.8,2.743,2.743,0,0,1-2.117-2.469,17.337,17.337,0,0,0-2.18-6.1,14.9,14.9,0,0,1-2.06-7.2s-.69-4.756,4.4-8.41a12.333,12.333,0,0,1,8.075-1.68,11.248,11.248,0,0,1,8.947,6.31s2.616,5.609-1.8,14c0,0-1.334,4.789-4.548,6.525a26.514,26.514,0,0,1-5.878,1.571s-2.435-.035-2.255,1.322c0,0,.159,2.211,3.142.636,0,0,2.1-1.427,2.878-1.993,0,0,2.936-1.828,2.357,1.1,0,0-.844,2.111-5.717,3.619,0,0-2.323.507-.664,1.038,0,0,.349.726,2.8-1.259,0,0,2.109-1.876,3.244-.089,0,0,.766,2.148-2.348,2.539a10.547,10.547,0,0,1-1.9-.641c.85-.053.881-.134,1.789-.685,0,0,.735.723,1.314.049,0,0,.126-.833-.858-.889,0,0-.77-.036-2.607,1.324,0,0-2.374,1.71-3.484-.026,0,0-1.013-1.612.925-1.751a8.9,8.9,0,0,0,5.979-2.661s1.519-1.137.059-1.386a6.974,6.974,0,0,0-2.295,1.688s-2.924,2.68-6,.338c0,0-2.09-2.986,1.377-3.428a31.481,31.481,0,0,0,7.155-2.741c2.911-1.541,3.528-6.813,3.968-9.15.928-4.93-.139-9.146-3.049-10.963-4.213-2.631-10.467-.431-10.9,5.194a15.5,15.5,0,0,0,.431,5.039c.538,2.373,1.686,3.747,2.116,6.232C144.968,121.409,145.028,124.962,147.474,123.431Z" transform="translate(-3410 -991)"/>
      <path id="i" d="M150.57,106.682q-1.321.611-.872,1.582a1.246,1.246,0,0,0,.835.666,1.56,1.56,0,0,0,1.132-.061,1.7,1.7,0,0,0,.8-.772,1.059,1.059,0,0,0,.074-.981,1.043,1.043,0,0,0-.83-.563,1.869,1.869,0,0,0-1.143.129Zm2.019,16.325q.355-.416.631-.734a4.621,4.621,0,0,0,.567-.873,9.182,9.182,0,0,1-2.7,1.836q-.869.4-1.454-.864c-.39-.844-.018-2.321.683-5.368q.179-.8.37-1.665T151,114q.118-.475.225-.883t.169-.73c-.085-.185-.532-.77-.907-.821a1.649,1.649,0,0,0-.91.084q-1.235.613-1.755,4.874t.346,6.133q1.058,2.289,2.831,1.469a4.853,4.853,0,0,0,1.594-1.116Z" transform="translate(-3410 -991)" fill="#fcb21a"/>
      <text id="Delivering_Ideas" data-name="Delivering Ideas" transform="translate(-3253.352 -854.908)" fill="#fcb21a" font-size="13.516" font-family="OpenSans-Bold, Open Sans" font-weight="700" letter-spacing="-0.025em"><tspan x="0" y="0">Delivering Ideas</tspan></text>
    </g>
  </g>
</svg>
